<svg width="210" height="75" viewBox="0 0 210 75" fill="none" xmlns="http://www.w3.org/2000/svg">
<rect opacity="0.45" width="210" height="75" rx="20" fill="white"/>
<g filter="url(#filter0_i_86_1387)">
<rect x="10" y="10" width="190" height="55" rx="17" fill="#5CCD6A"/>
</g>
<path d="M53.69 37.75C53.69 35.86 54.115 34.49 54.965 33.64C55.815 32.79 57.185 32.365 59.075 32.365C60.695 32.365 61.93 32.68 62.78 33.31C63.63 33.93 64.155 34.915 64.355 36.265H62.195C62.005 35.595 61.655 35.105 61.145 34.795C60.645 34.485 59.955 34.33 59.075 34.33C57.925 34.33 57.09 34.605 56.57 35.155C56.05 35.695 55.79 36.56 55.79 37.75C55.79 38.94 56.05 39.805 56.57 40.345C57.09 40.885 57.925 41.155 59.075 41.155C59.955 41.155 60.645 41 61.145 40.69C61.655 40.38 62.005 39.89 62.195 39.22H64.37C64.16 40.58 63.63 41.575 62.78 42.205C61.93 42.825 60.695 43.135 59.075 43.135C57.185 43.135 55.815 42.71 54.965 41.86C54.115 41 53.69 39.63 53.69 37.75ZM66.661 43V32.5H72.586C73.766 32.5 74.626 32.725 75.166 33.175C75.706 33.615 75.976 34.325 75.976 35.305C75.976 36.385 75.651 37.14 75.001 37.57C75.871 37.99 76.306 38.835 76.306 40.105C76.306 41.115 76.036 41.85 75.496 42.31C74.956 42.77 74.091 43 72.901 43H66.661ZM68.776 41.02H72.901C73.401 41.02 73.761 40.925 73.981 40.735C74.211 40.535 74.326 40.225 74.326 39.805C74.326 39.385 74.211 39.08 73.981 38.89C73.761 38.69 73.401 38.59 72.901 38.59H68.776V41.02ZM68.776 36.745H72.526C73.046 36.745 73.421 36.655 73.651 36.475C73.891 36.295 74.011 36.005 74.011 35.605C74.011 35.215 73.896 34.93 73.666 34.75C73.436 34.57 73.076 34.48 72.586 34.48H68.776V36.745ZM77.7255 43L80.7255 39.295C79.8555 39.145 79.2205 38.8 78.8205 38.26C78.4205 37.71 78.2205 36.935 78.2205 35.935C78.2205 34.725 78.5105 33.85 79.0905 33.31C79.6805 32.77 80.6255 32.5 81.9255 32.5H87.5355V43H85.4355V39.385H83.2605L80.3355 43H77.7255ZM80.7255 34.825C80.4555 35.055 80.3205 35.425 80.3205 35.935C80.3205 36.445 80.4555 36.82 80.7255 37.06C81.0055 37.29 81.4455 37.405 82.0455 37.405H85.4355V34.48H82.0455C81.4455 34.48 81.0055 34.595 80.7255 34.825ZM89.5256 39.865H91.5056C91.5056 40.355 91.7306 40.715 92.1806 40.945C92.6406 41.175 93.3506 41.29 94.3106 41.29C95.2706 41.29 95.9756 41.18 96.4256 40.96C96.8856 40.73 97.1156 40.37 97.1156 39.88C97.1156 39.39 96.9256 39.04 96.5456 38.83C96.1656 38.61 95.5406 38.5 94.6706 38.5H92.6306V36.775H94.7456C95.5456 36.775 96.1206 36.675 96.4706 36.475C96.8206 36.265 96.9956 35.93 96.9956 35.47C96.9956 35.03 96.7806 34.71 96.3506 34.51C95.9306 34.31 95.2706 34.21 94.3706 34.21C93.4606 34.21 92.7906 34.315 92.3606 34.525C91.9406 34.725 91.7306 35.05 91.7306 35.5H89.7506C89.7506 34.4 90.1106 33.605 90.8306 33.115C91.5506 32.615 92.7306 32.365 94.3706 32.365C96.0006 32.365 97.1756 32.59 97.8956 33.04C98.6156 33.49 98.9756 34.225 98.9756 35.245C98.9756 36.375 98.5406 37.17 97.6706 37.63C98.6206 38.08 99.0956 38.91 99.0956 40.12C99.0956 41.17 98.7106 41.935 97.9406 42.415C97.1806 42.895 95.9706 43.135 94.3106 43.135C92.6506 43.135 91.4356 42.875 90.6656 42.355C89.9056 41.835 89.5256 41.005 89.5256 39.865ZM102.48 43H100.245L104.97 32.5H107.34L112.065 43H109.83L108.975 41.08H103.335L102.48 43ZM106.155 34.72L104.22 39.1H108.09L106.155 34.72ZM111.688 34.48V32.5H121.963V34.48H117.883V43H115.768V34.48H111.688ZM123.977 43V32.5H126.092V36.115H129.317C130.617 36.115 131.557 36.39 132.137 36.94C132.727 37.48 133.022 38.355 133.022 39.565C133.022 40.765 132.727 41.64 132.137 42.19C131.557 42.73 130.617 43 129.317 43H123.977ZM129.197 38.095H126.092V41.02H129.197C129.797 41.02 130.232 40.905 130.502 40.675C130.782 40.435 130.922 40.065 130.922 39.565C130.922 39.045 130.782 38.67 130.502 38.44C130.232 38.21 129.797 38.095 129.197 38.095ZM134.838 37.75C134.838 35.86 135.263 34.49 136.113 33.64C136.963 32.79 138.333 32.365 140.223 32.365C141.843 32.365 143.078 32.68 143.928 33.31C144.778 33.93 145.303 34.915 145.503 36.265H143.343C143.153 35.595 142.803 35.105 142.293 34.795C141.793 34.485 141.103 34.33 140.223 34.33C139.073 34.33 138.238 34.605 137.718 35.155C137.198 35.695 136.938 36.56 136.938 37.75C136.938 38.94 137.198 39.805 137.718 40.345C138.238 40.885 139.073 41.155 140.223 41.155C141.103 41.155 141.793 41 142.293 40.69C142.803 40.38 143.153 39.89 143.343 39.22H145.518C145.308 40.58 144.778 41.575 143.928 42.205C143.078 42.825 141.843 43.135 140.223 43.135C138.333 43.135 136.963 42.71 136.113 41.86C135.263 41 134.838 39.63 134.838 37.75ZM147.17 43L150.17 39.295C149.3 39.145 148.665 38.8 148.265 38.26C147.865 37.71 147.665 36.935 147.665 35.935C147.665 34.725 147.955 33.85 148.535 33.31C149.125 32.77 150.07 32.5 151.37 32.5H156.98V43H154.88V39.385H152.705L149.78 43H147.17ZM150.17 34.825C149.9 35.055 149.765 35.425 149.765 35.935C149.765 36.445 149.9 36.82 150.17 37.06C150.45 37.29 150.89 37.405 151.49 37.405H154.88V34.48H151.49C150.89 34.48 150.45 34.595 150.17 34.825Z" fill="white"/>
<defs>
<filter id="filter0_i_86_1387" x="10" y="8" width="192" height="57" filterUnits="userSpaceOnUse" color-interpolation-filters="sRGB">
<feFlood flood-opacity="0" result="BackgroundImageFix"/>
<feBlend mode="normal" in="SourceGraphic" in2="BackgroundImageFix" result="shape"/>
<feColorMatrix in="SourceAlpha" type="matrix" values="0 0 0 0 0 0 0 0 0 0 0 0 0 0 0 0 0 0 127 0" result="hardAlpha"/>
<feOffset dx="2" dy="-2"/>
<feGaussianBlur stdDeviation="6"/>
<feComposite in2="hardAlpha" operator="arithmetic" k2="-1" k3="1"/>
<feColorMatrix type="matrix" values="0 0 0 0 0.135005 0 0 0 0 0.433333 0 0 0 0 0.128917 0 0 0 0.36 0"/>
<feBlend mode="normal" in2="shape" result="effect1_innerShadow_86_1387"/>
</filter>
</defs>
</svg>
